<?xml version="1.0" standalone="no"?>
<!DOCTYPE svg PUBLIC "-//W3C//DTD SVG 20010904//EN"
 "http://www.w3.org/TR/2001/REC-SVG-20010904/DTD/svg10.dtd">
<svg version="1.0" xmlns="http://www.w3.org/2000/svg"
 width="500.000000pt" height="500.000000pt" viewBox="0 0 500.000000 500.000000"
 preserveAspectRatio="xMidYMid meet">

<g transform="translate(0.000000,500.000000) scale(0.100000,-0.100000)"
fill="#000000" stroke="none">
<path d="M0 2500 l0 -2500 2500 0 2500 0 0 2500 0 2500 -2500 0 -2500 0 0
-2500z m2814 2131 c316 -73 615 -259 816 -506 146 -179 248 -396 301 -635 34
-153 34 -419 0 -570 -53 -237 -151 -447 -288 -617 l-34 -43 -195 0 -195 0 3
59 c1 33 0 63 -4 66 -10 10 -79 24 -120 25 -36 0 -39 3 -68 60 -16 33 -30 62
-30 65 0 3 48 5 106 5 58 0 114 5 125 10 18 10 19 27 19 510 0 483 -1 500 -19
510 -11 5 -86 10 -171 10 -137 0 -154 2 -177 20 -32 25 -93 26 -136 3 -29 -16
-77 -18 -499 -21 -365 -2 -469 -6 -477 -16 -7 -8 -12 -118 -13 -312 l-3 -299
-65 -15 c-90 -21 -130 -44 -130 -76 0 -16 -11 -35 -30 -51 -23 -19 -30 -33
-30 -61 0 -39 12 -60 73 -134 48 -59 113 -240 92 -258 -11 -10 -11 -18 1 -52
8 -22 14 -42 14 -44 0 -2 -65 -4 -144 -4 l-144 0 -31 35 c-90 103 -193 291
-246 448 -56 167 -69 257 -69 462 0 210 14 299 75 478 168 494 611 870 1134
962 120 21 441 13 559 -14z m-414 -1091 c0 -5 -4 -10 -9 -10 -4 0 -22 -13 -39
-30 -18 -16 -37 -30 -44 -30 -7 0 -24 -9 -38 -20 -23 -18 -44 -20 -235 -22
l-210 -3 203 -2 c189 -3 203 -5 197 -21 -19 -46 -23 -83 -9 -88 8 -2 21 -6 29
-9 12 -3 14 -16 9 -62 -7 -68 6 -126 42 -178 l25 -38 -17 -63 c-16 -60 -15
-109 2 -170 5 -18 -2 -23 -60 -38 -89 -25 -148 -64 -192 -131 l-37 -55 -98 0
c-114 0 -129 4 -129 35 0 19 7 24 38 30 70 11 68 7 50 169 -9 80 -19 150 -23
156 -3 5 -19 10 -36 10 l-29 0 0 284 c0 218 3 286 13 289 24 10 597 7 597 -3z
m230 0 c0 -5 -4 -10 -9 -10 -6 0 -13 5 -16 10 -3 6 1 10 9 10 9 0 16 -4 16
-10z m578 -2 c17 -17 17 -939 0 -956 -8 -8 -48 -12 -115 -12 l-103 0 -63 63
c-54 55 -72 67 -137 88 -70 23 -76 28 -97 70 -12 24 -24 48 -25 53 -2 5 -53
12 -113 16 -96 6 -112 5 -130 -10 -39 -33 -45 -32 -27 7 40 86 53 106 65 94
16 -16 112 -13 179 5 74 21 140 77 164 139 13 35 16 65 12 139 -5 83 -3 94 13
105 11 6 19 17 19 24 0 7 15 22 33 32 25 15 57 21 142 26 l110 5 -107 2 -108
2 11 27 c5 15 9 39 8 53 0 14 -1 28 0 33 2 13 256 8 269 -5z m-1602 -665 c21
-28 17 -41 -11 -35 -24 4 -34 30 -18 45 10 10 15 9 29 -10z m154 -288 c0 -36
28 -45 139 -45 56 0 101 -2 101 -4 0 -3 -18 -41 -40 -86 -21 -45 -42 -102 -46
-126 -12 -81 -29 -76 -74 21 -22 47 -44 84 -48 81 -5 -3 -24 37 -44 89 -29 80
-32 95 -19 98 24 5 31 -1 31 -28z m-2 -552 c17 -48 29 -90 27 -92 -9 -9 -245
156 -245 171 0 5 42 8 94 8 l93 0 31 -87z m1686 66 c-46 -51 -276 -200 -289
-187 -3 2 5 28 16 57 11 29 24 75 30 102 l11 49 125 0 126 0 -19 -21z m-1843
-719 c37 -20 11 -140 -45 -215 -56 -73 -74 -148 -56 -232 12 -54 38 -87 61
-78 18 7 119 203 119 231 0 25 46 88 77 105 25 13 78 -3 100 -31 19 -23 15
-69 -8 -106 -27 -45 -56 -44 -73 1 -7 19 -8 19 -21 -4 -28 -53 20 -127 74
-111 82 23 128 77 152 175 10 43 20 79 23 82 2 2 13 -5 24 -17 18 -19 20 -34
18 -115 -1 -52 2 -91 6 -89 4 3 8 -3 8 -13 0 -15 4 -14 20 7 35 44 70 112 70
136 0 43 43 27 54 -21 18 -74 54 -74 96 1 34 61 85 114 109 114 22 0 91 -51
91 -66 0 -8 -10 -14 -23 -14 -28 0 -62 -34 -116 -119 -76 -119 -44 -119 48 0
57 72 78 89 93 73 4 -3 -7 -30 -23 -61 -27 -52 -39 -113 -21 -113 18 0 133 92
145 117 8 16 19 51 25 78 6 28 18 67 27 88 13 32 19 37 38 31 24 -7 56 -42 57
-61 0 -6 -9 -33 -21 -60 -35 -81 -39 -93 -29 -93 5 0 26 34 47 76 43 86 63
105 87 85 11 -9 16 -30 16 -63 0 -40 3 -49 15 -44 8 3 15 1 15 -3 0 -18 -34
-21 -57 -5 -21 13 -24 22 -21 59 2 24 0 41 -3 37 -4 -4 -26 -52 -49 -106 -53
-125 -66 -146 -96 -146 -29 0 -33 7 -36 63 l-3 46 -20 -23 c-11 -13 -45 -42
-76 -64 -81 -59 -83 -62 -103 -152 -23 -109 -58 -150 -134 -158 l-52 -5 0 42
c0 43 42 122 95 181 21 23 49 89 42 97 -2 2 -12 -6 -22 -17 -23 -26 -50 -25
-76 1 -17 17 -19 27 -13 67 3 26 3 44 -1 40 -11 -11 -63 19 -76 44 -10 19 -15
14 -59 -67 -49 -91 -62 -105 -94 -105 -28 0 -76 49 -76 78 l0 24 -35 -31 c-70
-61 -166 -64 -222 -4 -35 37 -31 39 -76 -47 -35 -66 -59 -94 -98 -110 -24 -10
-33 -10 -54 4 -35 23 -56 59 -62 105 l-6 40 -29 -29 c-34 -34 -39 -35 -78 -15
-50 26 -58 126 -15 192 39 60 103 95 131 72 18 -15 17 -16 38 51 25 77 62 138
99 161 38 22 33 22 58 9z m1748 -187 c16 -35 14 -66 -9 -125 -11 -28 -18 -53
-17 -54 1 -2 34 35 72 82 79 96 106 107 129 52 12 -27 12 -39 0 -77 -8 -26
-14 -47 -14 -49 0 -1 23 16 51 38 57 45 61 46 79 25 10 -12 10 -25 1 -59 -6
-25 -11 -50 -11 -55 0 -24 36 -8 77 34 24 25 43 43 43 40 0 -17 -33 -66 -60
-89 -38 -31 -61 -33 -85 -6 -16 18 -17 26 -7 68 5 26 9 48 7 50 -1 2 -34 -26
-71 -62 -38 -36 -77 -68 -87 -72 -22 -7 -47 12 -47 36 0 23 30 91 65 148 40
65 11 50 -39 -20 -41 -59 -80 -106 -134 -165 -17 -18 -31 -23 -55 -21 -29 3
-32 6 -35 41 -3 39 -12 46 -31 23 -18 -21 -62 -26 -93 -10 -25 13 -32 13 -58
-1 -26 -13 -35 -14 -57 -3 -15 7 -34 25 -43 40 -14 25 -13 30 4 62 10 19 33
51 51 70 38 42 79 47 116 16 l24 -21 -23 -16 c-29 -20 -92 -101 -92 -117 1 -6
21 11 45 38 51 57 69 54 59 -10 -6 -41 -5 -44 16 -44 37 0 91 69 134 168 36
86 39 90 61 80 13 -6 28 -21 34 -35z"/>
<path d="M1900 3505 c-18 -21 -5 -47 22 -43 26 3 37 36 16 49 -18 12 -24 11
-38 -6z"/>
<path d="M2002 3503 c-13 -26 -4 -43 23 -43 13 0 25 6 28 13 6 17 -11 47 -28
47 -8 0 -18 -8 -23 -17z"/>
<path d="M2110 3505 c-17 -20 -5 -45 20 -45 11 0 23 7 26 15 6 15 -11 45 -26
45 -4 0 -13 -7 -20 -15z"/>
<path d="M3008 3503 c12 -2 32 -2 45 0 12 2 2 4 -23 4 -25 0 -35 -2 -22 -4z"/>
<path d="M3008 3483 c12 -2 32 -2 45 0 12 2 2 4 -23 4 -25 0 -35 -2 -22 -4z"/>
<path d="M3008 3463 c12 -2 30 -2 40 0 9 3 -1 5 -23 4 -22 0 -30 -2 -17 -4z"/>
<path d="M1572 1334 c-32 -64 -66 -184 -52 -184 16 0 61 83 76 141 20 76 6
101 -24 43z"/>
<path d="M1801 1116 c-23 -24 -21 -46 3 -46 7 0 18 11 24 25 23 50 10 60 -27
21z"/>
<path d="M1355 1007 c-30 -57 -30 -102 1 -76 22 18 31 38 39 87 9 58 -7 54
-40 -11z"/>
<path d="M1457 809 c7 -7 15 -10 18 -7 3 3 -2 9 -12 12 -14 6 -15 5 -6 -5z"/>
<path d="M2308 758 c-25 -38 -42 -94 -34 -113 11 -28 25 -5 42 65 16 70 14 82
-8 48z"/>
</g>
</svg>
